<?xml version="1.0" encoding="UTF-8"?>
<svg width="412px" height="475px" viewBox="0 0 412 475" version="1.1" xmlns="http://www.w3.org/2000/svg" xmlns:xlink="http://www.w3.org/1999/xlink">
    <defs>
        <linearGradient x1="71.4065189%" y1="83.7386951%" x2="20.1302339%" y2="15.6946905%" id="linearGradient-1">
            <stop stop-color="#F8BBD0" offset="0%"></stop>
            <stop stop-color="#C5CAE9" offset="100%"></stop>
        </linearGradient>
    </defs>
    <g id="Video-Light" stroke="none" stroke-width="1" fill="none" fill-rule="evenodd">
        <g id="Error-Page" transform="translate(-687.000000, -454.000000)" fill="url(#linearGradient-1)">
            <g id="Content" transform="translate(687.000000, 454.000000)">
                <g id="Group-2">
                    <path d="M291.386417,2.10203447 C293.501791,0.3270255 296.655569,0.60294532 298.430578,2.71831864 C300.205587,4.83369196 299.929667,7.98746993 297.814294,9.7624789 L297.814294,9.7624789 L216.991416,77.58185 C216.99712,77.7205233 217,77.8599253 217,78 C217,79.0451619 216.83966,80.0528742 216.542235,80.9998808 L354,81 C386.032515,81 412,106.967485 412,139 L412,394 C412,426.032515 386.032515,452 354,452 L286.548,451.99914 L302.458809,465.349425 C304.574183,467.124434 304.850102,470.278212 303.075093,472.393585 C301.300084,474.508958 298.146307,474.784878 296.030933,473.009869 L270.991,451.99914 L141.297,451.99914 L116.258098,473.009869 C114.204942,474.732672 111.173565,474.523415 109.374073,472.575456 L109.213938,472.393585 C107.438929,470.278212 107.714849,467.124434 109.830222,465.349425 L109.830222,465.349425 L125.74,451.99914 L58,452 C25.9674845,452 3.92285176e-15,426.032515 0,394 L0,139 C-3.92285176e-15,106.967485 25.9674845,81 58,81 L197.457765,80.9998808 C197.192919,80.1566066 197.036771,79.2651974 197.005741,78.3420737 C196.792017,78.2126399 196.584657,78.0643086 196.386417,77.8979655 L115.185706,9.7624789 C113.070333,7.98746993 112.794413,4.83369196 114.569422,2.71831864 C116.344431,0.60294532 119.498209,0.3270255 121.613583,2.10203447 L201.848497,69.4272508 C203.353078,68.5211795 205.115675,68 207,68 C208.638533,68 210.185023,68.3940815 211.549861,69.0926348 Z" id="Combined-Shape"></path>
                </g>
            </g>
        </g>
    </g>
</svg>