<?xml version="1.0" encoding="UTF-8"?>
<svg width="720px" height="720px" viewBox="0 0 720 720" version="1.1" xmlns="http://www.w3.org/2000/svg" xmlns:xlink="http://www.w3.org/1999/xlink">
    <!-- Generator: Sketch 64 (93537) - https://sketch.com -->
    <title>Video</title>
    <desc>Created with Sketch.</desc>
    <defs>
        <linearGradient x1="6.40016693%" y1="29.3242991%" x2="91.3802644%" y2="72.8903443%" id="linearGradient-1">
            <stop stop-color="#8C9EFF" offset="0%"></stop>
            <stop stop-color="#F8BBD0" offset="100%"></stop>
        </linearGradient>
    </defs>
    <g id="Video" stroke="none" stroke-width="1" fill="none" fill-rule="evenodd">
        <g id="Group" transform="translate(18.000000, 115.000000)">
            <path d="M543.423546,15.0117143 L142.252408,15.0623045 C114.386958,15.0658185 88.4918458,24.9772205 68.2660305,41.7322915 C48.0402151,58.4873624 33.4836969,82.0861023 28.2954354,109.464292 C19.4333805,156.228903 15,202.990013 15,249.748062 C15,297.027354 20.9343534,343.268994 32.8088365,388.47223 C39.5054072,413.964427 54.3752441,435.596369 74.1602107,450.855262 C93.9451773,466.114156 118.645274,475 145.002364,475 L543.712339,475 C571.516645,475 597.365231,465.134275 617.576936,448.442838 C637.788642,431.751401 652.363469,408.234251 657.620256,380.931401 C665.227281,341.421826 669,296.425715 669,245.949612 C669,194.782505 665.122914,149.090178 657.307191,108.87922 C652.009031,81.6208283 637.422378,58.1522008 617.218135,41.4990468 C597.013893,24.8458928 571.192061,15.0082123 543.423546,15.0117143 Z" id="Rectangle" stroke="url(#linearGradient-1)" stroke-width="30" fill="#E91E63"></path>
            <g id="Logo" transform="translate(144.000000, 115.000000)">
                <g id="g931" transform="translate(75.000000, 126.541356) scale(-1, 1) rotate(-180.000000) translate(-75.000000, -126.541356) translate(0.000000, 0.041356)" fill="#FFFFFF" fill-rule="nonzero">
                    <polygon id="path933" points="0 0 0 252.997074 31.5077978 252.997074 31.5077978 28.0686124 149.183421 28.0686124 149.183421 0"></polygon>
                </g>
                <g id="g935" transform="translate(75.000000, 126.541356) scale(-1, 1) rotate(-180.000000) translate(-75.000000, -126.541356) translate(0.000000, 0.041356)" stroke="#FFFFFF" stroke-width="26.666666">
                    <polygon id="path937" points="0 0 0 252.997074 31.5077978 252.997074 31.5077978 28.0686124 149.183421 28.0686124 149.183421 0"></polygon>
                </g>
                <g id="g939" transform="translate(305.118707, 150.807301) scale(-1, 1) rotate(-180.000000) translate(-305.118707, -150.807301) translate(214.618707, 42.807301)">
                    <g id="g941-Clipped" transform="translate(0.000000, -0.000000)">
                        <g id="g941" transform="translate(0.000019, 0.316354)">
                            <g id="g947" transform="translate(0.880354, 0.827771)" fill="#FFFFFF" fill-rule="nonzero">
                                <path d="M-8.52651283e-14,85.0340611 L-8.52651283e-14,213.239995 L29.9896395,213.239995 L29.9896395,86.9306061 C29.9896395,49.7600961 50.8665311,26.2411672 89.5852639,26.2411672 C128.305263,26.2411672 149.563277,49.7600961 149.563277,86.9306061 L149.563277,213.239995 L179.55165,213.239995 L179.55165,85.0340611 C179.55165,33.4503154 149.182155,0.0703649367 89.5852639,0.0703649367 C29.9896395,0.0703649367 -8.52651283e-14,33.8273471 -8.52651283e-14,85.0340611" id="path949"></path>
                            </g>
                            <g id="g951" transform="translate(0.880354, 0.827771)" stroke="#FFFFFF" stroke-width="26.666666">
                                <path d="M-8.52651283e-14,85.0340611 L-8.52651283e-14,213.239995 L29.9896395,213.239995 L29.9896395,86.9306061 C29.9896395,49.7600961 50.8665311,26.2411672 89.5852639,26.2411672 C128.305263,26.2411672 149.563277,49.7600961 149.563277,86.9306061 L149.563277,213.239995 L179.55165,213.239995 L179.55165,85.0340611 C179.55165,33.4503154 149.182155,0.0703649367 89.5852639,0.0703649367 C29.9896395,0.0703649367 -8.52651283e-14,33.8273471 -8.52651283e-14,85.0340611 Z" id="path953"></path>
                            </g>
                        </g>
                    </g>
                </g>
            </g>
        </g>
    </g>
</svg>